<?xml version="1.0" standalone="yes"?>
<svg width="1024" height="1024">
<path style="fill:#fefefe; stroke:none;" d="M0 0L0 176L65 176L65 115L130 115L130 53L194 53L194 0L0 0z"/>
<path style="fill:#f8f8f8; stroke:none;" d="M194 0L194 53L130 53L130 115L65 115L65 176L0 176L0 547L47 547C51.3198 547 60.8523 548.779 64.3966 545.972C69.2266 542.147 66 520.941 66 515L66 423L130 423L130 461L161 461L158 484L130 484L130 500C159.788 500.635 154.552 527.579 149 547L165 547L170 506L160 506L163 485L174 485L177 466L194 466L194 423L258 423L258 484L282 484L278 508L259.603 509.858L258 520L258 546L245 546L243 562L216 562L218 546L209 546L207 562L194 562L194 608L130 608L130 560L65 562L65 608L0 608L0 1024L698 1024L698 978L760 978L760 916L889 916L889 854L760 854L760 792L698 792L698 731L760 731L760 669L698 669L698 608L634 608L634 563L595 563L598 539C614.542 539 632.622 541.082 649 538.811C654.499 538.048 661.786 530.788 655.682 525.742C651.735 522.48 643.762 524.053 639 523.996C627.437 523.859 613.66 521.618 606.994 510.999C596.56 494.379 607.972 472.174 624 464.273C643.1 454.858 672.224 460 693 460L689 485L698 485L698 423L760 423L760 362L889 362L888 422L843 422C838.68 422 829.148 420.221 825.603 423.028C822.284 425.657 824 435.214 824 439C824 453.793 823.841 472.278 842 475L842 476C836.005 476.899 830.168 478.954 828 485L902 485L902 493C907.609 489.306 912.437 485.911 919 484.04C936.408 479.078 953.1 491.068 953.896 509C955.003 533.95 942.533 561.736 915 563.907C906.47 564.579 900.185 560.98 893 557C886.099 593.629 889 631.807 889 669L825 669L825 731L889 731L889 670L953 670L953 731L1024 731L1024 53L889 53L889 177L760 177L760 115L698 115L698 53L760 53L760 0L194 0z"/>
<path style="fill:#fefefe; stroke:none;" d="M760 0L760 53L698 53L698 115L760 115L760 177L889 177L889 115L825 115L825 53L889 53L889 0L760 0z"/>
<path style="fill:#f1f1f1; stroke:none;" d="M889 0L889 53L953 53L953 0L889 0z"/>
<path style="fill:#ffffff; stroke:none;" d="M953 0L953 53L1024 53L1024 0L953 0z"/>
<path style="fill:#f1f1f1; stroke:none;" d="M825 53L825 115L889 115L889 53L825 53z"/>
<path style="fill:#fdfdfd; stroke:none;" d="M760 362L760 423L698 423L698 485C679.058 485 659.922 484.2 641 485.019C635.116 485.274 628.22 491.969 634.434 497.258C637.671 500.013 643.097 498.798 647 499.17C657.766 500.194 670.102 498.811 678.96 506.34C693.103 518.361 686.667 544.299 672.996 554.211C661.581 562.488 647.496 563 634 563L634 608L714 609L761 610L761 593L769 596L767 599L773 604L765 601L766 605L769 604C769.144 606.662 769.819 607.636 767 608L767 609L776 612L771 616L769 615L765 622L768 623L769 619L774 621L772 617L779 620L775 613L781 614L780 617L784 617L782 620L782 621L789 620L792 617L790 621L799 624C801.395 619.671 804.552 620.453 809 621L809 622L805 622L804 626L808 630L810 628L815 629L815 625L823 627L824 624L830 627L826 629L831 631L823 638L827 644L830 643C830.482 648.435 834.364 648.813 839 648L836 644L839 641L840 646L849 644C850.198 649.589 862.387 647.407 867 647L865 643L865 642L870 645L882 643L882 642L882 632L876 628L871 627L865 625L860 625L865 630L852 624L857 628L857 629L852 631L843 626L848 627L850 624L850 623L842 623L829 617L828 618L828 619L831 620L831 621L819 621L819 620C827.916 619.06 823.469 614.884 819 611L823 612C828.071 607.757 836.712 609 843 609L889 609L889 608L824 608L824 549C815.936 549 800.668 551.931 794.109 546.566C786.759 540.556 793.26 535.09 792.62 528C791.59 516.589 786.288 502.721 782.236 492.019C780.086 486.34 767.26 488.033 768.06 483C768.928 477.539 779.416 478.247 782.895 480.179C787.525 482.75 788.901 489.252 790 494L840 494C846.35 494 856.006 492.194 861.941 494.603C868.952 497.45 860.809 526.338 855.581 529.987C852.002 532.485 846.121 531.852 842 532.039C832.324 532.479 822.692 533.615 813 534.039C806.823 534.31 798.583 533.518 798 541L841 541C847.249 541 853.914 539.81 856 547L868 547L878 485L827 485L826 492L824 492C823.059 481.293 816.676 478.239 807 476L807 475C826.976 472.05 824 453.981 824 438C824 434.12 822.593 426.614 825.603 423.603C828.87 420.337 837.759 422 842 422L888 422L889 362L760 362z"/>
<path style="fill:#feffff; stroke:none;" d="M66 423L66 514C66 520.749 69.3356 540.458 64.3966 545.397C61.0075 548.786 51.4165 547 47 547L0 547L0 608L65 608L65 562L130 560L130 608L194 608L194 562L207 562L209 546L218 546L216 562L243 562L245 546L258 546L258 520L260.318 509.858L278 508L282 484L258 484L258 423L194 423L194 466L177 466L174 485L163 485L160 506L170 506L165 547L149 547C157.042 527.398 158.499 500.239 130 500L130 484L158 484L161 461L130 461L130 423L66 423M323 423L323 484L341 484C338.998 499.503 339.523 535.795 322 541L322 485L288 485L280 547L259.603 548.028L258 563L258 608L322 608C322 590.248 315.762 563.608 332 553L332 562L356 562L369 485L380 485L367 562L387 562L387 608L446 608L446 546L469 546L466 562L494 562L500.282 518L501.034 498L489 484L510 484L510 423L447 423L447 484L465 484L465 486L450 494L446 485L387 484L387 423L323 423z"/>
<path style="fill:#f6d884; stroke:none;" d="M824 457L824 459L826 459L826 457L824 457z"/>
<path style="fill:#fac345; stroke:none;" d="M824 459C820.322 468.746 817.676 472.529 807 475L807 476C816.248 479.009 822.427 481.506 824 492L826 492C827.417 482.548 832.966 478.146 842 476L842 475C832.283 472.692 828.647 468.324 826 459L824 459z"/>
<path style="fill:#f8ddab; stroke:none;" d="M638 460L638 461L693 461L675 460L638 460z"/>
<path style="fill:#fadf99; stroke:none;" d="M707 460L707 461L734 461L707 460z"/>
<path style="fill:#fcc543; stroke:none;" d="M598 539L595 562C616.863 562 647.944 567.613 668 557.727C683.237 550.216 693.719 525.288 683.15 510.015C673.686 496.339 655.883 501.282 642 499.895C637.695 499.465 631.299 496.397 632.712 491.003C634.401 484.558 641.614 484.009 647 484L689 484L693 461L650 461C641.687 461 632.819 459.976 625 463.338C608.148 470.583 596.224 494.851 606.995 511.996C613.994 523.138 627.457 523 639 523C644.391 523 651.511 522.163 655.678 526.419C661.046 531.901 653.348 538.07 648 538.811C631.94 541.035 614.22 539 598 539M707 461L690 562L718 562C718.564 548.866 719.901 524.122 726.995 513.015C731.385 506.141 743.979 502.36 748.821 511.105C751.548 516.031 748.925 523.906 747.745 529C745.299 539.555 743.224 551.157 743 562L770 562C771.526 542.672 781.155 520.26 777.671 501C775.997 491.75 770.166 495.431 764.228 491.821C761.434 490.122 761.553 486.176 758.686 484.742C748.945 479.872 737.032 487.546 729 492L734 461L707 461z"/>
<path style="fill:#fcedca; stroke:none;" d="M769 479L769 480L783 480L769 479z"/>
<path style="fill:#f9c54e; stroke:none;" d="M768 480L768 487C771.571 487 776.64 486.132 779.581 488.603C782.453 491.016 782.975 495.618 784.026 499C786.849 508.086 791.587 518.488 792.353 528C792.854 534.226 786.074 542.449 794.109 546.972C798.053 549.192 804.625 548 809 548L842 548C844.879 548 855.912 549.439 855.079 544.089C854.369 539.535 845.115 541 842 541L798 541C799.148 533.805 806.932 534.505 813 534.089C824.7 533.288 845.178 536.147 855.581 530.436C861.204 527.349 864.148 508.096 865.326 502C865.88 499.135 865.952 495.96 862.852 494.603C857.136 492.103 847.182 494 841 494L790 494C787.861 479.513 780.661 480 768 480z"/>
<path style="fill:#fed472; stroke:none;" d="M767 482L767 486L768 486L767 482z"/>
<path style="fill:#fde9b8; stroke:none;" d="M748 483L748 484L755 484L748 483z"/>
<path style="fill:#fac341; stroke:none;" d="M902 493L902 485C896.56 485 883.077 482.53 878.742 486.028C874.122 489.757 873.701 507.228 873.05 513C870.285 537.531 861.509 562.329 861 587L888 587L893 557C899.099 561.637 905.289 564.052 913 563.995C939.195 563.802 950.891 542.394 953.075 519C953.798 511.255 954.815 503.283 951.161 496C941.714 477.176 915.038 481.109 902 493z"/>
<path style="fill:#fce9c2; stroke:none;" d="M638 484L638 485L689 485C675.873 479.492 652.311 484 638 484z"/>
<path style="fill:#f8d486; stroke:none;" d="M603 492L603 504L604 504L603 492z"/>
<path style="fill:#f7d37c; stroke:none;" d="M764 492L764 493L773 493L764 492z"/>
<path style="fill:#fbe09a; stroke:none;" d="M638 499L638 500L650 500L638 499z"/>
<path style="fill:#f4da9e; stroke:none;" d="M793 501L793 502L806 503L793 501z"/>
<path style="fill:#f3e1bf; stroke:none;" d="M810 501L810 502L823 502L823 512L824 512L824 501L810 501z"/>
<path style="fill:#faf0da; stroke:none;" d="M827 501L827 512L840 512L840 511L828 511L828 502L841 502L827 501z"/>
<path style="fill:#f8efd3; stroke:none;" d="M845 504L846 504L858 503C855.985 499.502 845.947 499.579 845 504z"/>
<path style="fill:#f1f0ec; stroke:none;" d="M793 502C794.926 511.299 798.004 512 807 512C806.783 501.846 801.819 502 793 502z"/>
<path style="fill:#f0f0ee; stroke:none;" d="M810 502L811 512L823 512L823 502L810 502z"/>
<path style="fill:#fdfcfa; stroke:none;" d="M828 502L828 511L840 511L841 502L828 502z"/>
<path style="fill:#fcfcfb; stroke:none;" d="M844 511C852.005 511 856.257 511.011 857 502C849.212 502 844.469 501.995 844 511z"/>
<path style="fill:#f5dfb2; stroke:none;" d="M910 505L910 506L918 506L910 505z"/>
<path style="fill:#f1f1f1; stroke:none;" d="M397 546C402.066 546 414.2 548.246 418.258 544.972C420.512 543.153 420.326 538.613 420.754 536C421.869 529.194 426.81 515.531 422.682 509.303C416.85 500.505 403.998 508.787 401.634 516.001C400.262 520.189 400.312 524.7 399.537 529C398.499 534.755 397.049 540.105 397 546z"/>
<path style="fill:#f1f2f1; stroke:none;" d="M718 562L690 562L690 563L698 563L698 608L760 608L760 563L769 563L769 562L743 562C743.467 551.118 745.468 539.585 748 529C749.238 523.825 751.75 515.149 748.821 510.214C743.958 502.02 730.218 506.235 726.417 513.015C719.897 524.649 718.275 548.679 718 562z"/>
<path style="fill:#f2f2f2; stroke:none;" d="M907.004 506.742C892.295 512.44 892.048 549.082 914.985 540.891C931.142 535.122 931.078 497.416 907.004 506.742z"/>
<path style="fill:#faecc7; stroke:none;" d="M844 511L844 512L855 512L844 511z"/>
<path style="fill:#f7db8d; stroke:none;" d="M843 515L843 516L854 516L843 515z"/>
<path style="fill:#f4f4f2; stroke:none;" d="M797 516L800 528L810 527L808 516L797 516z"/>
<path style="fill:#f0efec; stroke:none;" d="M812 516L813 527L823 527L823 516L812 516z"/>
<path style="fill:#f6e1b0; stroke:none;" d="M823 516L823 527L824 527L823 516z"/>
<path style="fill:#f9eac6; stroke:none;" d="M827 516L827 526L828 526L827 516z"/>
<path style="fill:#fefefb; stroke:none;" d="M828 516L828 526L838 526L839 516L828 516z"/>
<path style="fill:#fdfdfd; stroke:none;" d="M842 525L852 524L854 516C845.911 516 842.082 515.939 842 525z"/>
<path style="fill:#fcdf97; stroke:none;" d="M632 523L632 524L651 524L632 523z"/>
<path style="fill:#f9e6be; stroke:none;" d="M847 524L847 525L852 525L847 524z"/>
<path style="fill:#f2deb7; stroke:none;" d="M802 527L802 528L810 528L802 527z"/>
<path style="fill:#f1f2f1; stroke:none;" d="M824 549L824 608L889 608L889 587L861 588L867 547L824 549z"/>
<path style="fill:#f3e1be; stroke:none;" d="M796 548L796 549L853 549L835 548L796 548z"/>
<path style="fill:#fbc440; stroke:none;" d="M802.109 551.747C794.728 554.767 799.563 566.122 806.942 563.381C814.521 560.566 809.863 548.574 802.109 551.747z"/>
<path style="fill:#fbc548; stroke:none;" d="M841.189 551.758C833.834 554.753 838.785 565.93 845.941 563.377C853.531 560.671 848.794 548.661 841.189 551.758z"/>
<path style="fill:#f9d68a; stroke:none;" d="M811 555L811 560L812 560L811 555z"/>
<path style="fill:#f8e2ba; stroke:none;" d="M595 562L595 563L652 563L634 562L595 562z"/>
<path style="fill:#f9e2a4; stroke:none;" d="M888 583L888 587L889 587L888 583z"/>
<path style="fill:#f7d486; stroke:none;" d="M861 587L861 588L888 588L861 587z"/>
<path style="fill:#fdfefe; stroke:none;" d="M761 593L761 610C742.677 604.584 717.142 609 698 609L698 669L760 669L760 731L698 731L698 792L760 792L760 854L888 854L888 825L882 832C883.502 834.406 882.217 835.655 880 837L882 839L882 840L870 842L871 836L869 837L866 834L869 840L860 835L859 840L855 835L853 835L844 843L849 836L845 836L841 839L842 843L830 846L831 844L826 842L825 842C822.827 845.14 820.358 844.029 817 843L823 837L812 837L812 839L806 835L798 834L790 834L791 829L790 827L786 823L791 821L791 820L791 816C789.194 814.449 788.837 814.137 791 813C789.003 807.786 788.397 803.826 794 801L794 800L788 799L791 793L786 793L783 789L786 782L792 780C789.744 776.906 787.589 777.37 784 778L779 773L778 768L778 773L777 773C775.937 770.236 775.26 771.789 775 774L774 774L773 769L782 766L782 765L780 764L781 761L786 765L785 769L790 770L790 769L787 768L788 761L790 759L790 756L790 755L777 744L783 740L783 739L776 737L778 733L773 733L773 732L775 732L775 731L771 731L771 725L774 724L772 715L773 715L773 717L774 717L768 713L767 708L771 707L771 706L769 702L769 701L765 701L765 700C768.236 698.401 769.288 693.684 765 693L765 692C767.412 689.81 767.162 685.356 765 683L765 682L771 681L766 680L765 674L771 675L770 668L776 667L775 665L777 663L779 664L785 661L780 663L781 668L782 668L783 664L786 665L791 661C791.879 655.728 804.238 662.046 804 663L811 664L809 666L809 667L812 663C814.993 662.936 816.346 663.054 817 660L822 663L823 667L820 667L820 668L839 669L889 669L889 609L840 609C834.872 609 826.295 607.424 823 612L819 611C822.22 615.219 826.932 617.839 819 620L819 621L831 621L831 620L828 620L829 617L842 623L850 623L850 624L848 627L843 626L852 631L857 629L857 628L852 624C855.739 626.942 860.097 630.866 865 630L860 625L865 625C866.706 627.55 868.211 628.423 871 627L876 628L882 632C880.589 635.687 878.345 639.164 882 642L882 643L870 645L865 642L865 643L867 647C861.568 647.204 852.231 649.112 849 644L840 646L839 641L836 644L839 648C834.076 648 828.785 647.859 830 643L827 644L823 638L831 631L826 629L830 627L829 624L824 624L823 627L815 625L815 629L808 630L804 626L805 622L809 622L809 621C804.669 620.199 800.626 619.101 799 624L790 621L792 617L789 620L782 621L782 620L784 617L780 617L781 614L775 613L779 620L772 617L774 621L769 619L768 623L765 622L769 615L771 616L776 612L767 609L767 608L770 608L769 604L766 605L765 601L773 604L767 599L769 596L761 593z"/>
<path style="fill:#fdfdfd; stroke:none;" d="M791 661L783 664L782 668L781 668L780 663L785 661L779 664L777 663L775 665L776 667L770 668L771 675L765 674L767 676L766 680L771 681L765 682L765 683L765 692L765 693L768 694L765 700L765 701L769 701L769 702L767 703L771 706L771 707L767 708L768 713L774 717L773 717L773 715L772 715L774 724L771 725L771 731L775 731L775 732L773 732L773 733L778 733L776 737L783 739L783 740L777 744L790 755L790 756L790 759L788 760L788 761L787 768L790 769L790 770L785 769L786 765L781 761L782 765L782 766L773 769L774 774L775 774L775 771L777 773L778 773L778 768L779 773L784 778L792 780L786 782L783 789L786 793L791 793L788 799L794 800L794 801C787.999 802.822 788.49 808.176 791 813L788 814L788 815L791 816L791 820L791 821L786 823L790 827L791 829L790 834L798 834L806 835L812 839L812 837L823 837L817 843C820.18 844.497 824.053 846.42 825 842L826 842L831 844L830 846L842 843L841 839L845 836L849 836L844 843L853 835L855 835L859 840L860 835L869 840L866 834L869 837L871 836L870 842C875.541 844.3 877.181 842.496 882 840L882 839L880 837C882.72 836.42 884.675 833.847 882 832L888 825C888 839.4 889 853.666 889 868C889 872.189 887.036 880.936 892 882L891 884L897 885L894 889L894 890L894 895C898.127 897.413 897.769 900.643 897 905L900 906L902 909L899 913L902 914L900 922L905 920C905 923.856 909.213 923.674 910 920L911 920L915 923L915 924L912 927L913 927C915.568 925.095 917.781 925.962 920 928L909 931L909 932L912 932L912 933C907.237 933.771 898.854 939.912 902 945L901 947L895 950L906 953L891 953L893 957L889 956L887 960L895 961L895 962L885 962L885 958L884 958L883 963L899 966L896 968L903 976L903 977L900 977L900 983L907 983L907 984L900 984L900 985L905 985L898 988L901 997L904 1000L899 998L902 1005L898 1005L898 1007L900 1008L901 1008L917 1005C910.374 1003.65 907.588 998.195 904 993L915 994L911 997L912 1002L922 1003L921 1000L924 999L924 997L919 996L919 995C922.356 995.182 926.49 996.359 926 992L921 992L923 993L922 990L928 986L921 986L929 981L929 980L927 978L935 981L936 981L935 978L940 977L941 972L936 971L939 965C935.114 965 938.137 957.923 941 957.333C943.026 956.916 944.189 958.569 945.833 959.333C947.027 959.888 946.767 958.487 947 958L948 958C950.634 970.354 966.132 951.343 968 947L963 949C952.337 946.099 957.451 942.037 955 933L951 934L952 937L948 938L948 934L945 936L946 933L943 935L942 931L948 927L948 931L956 929L956 923L951 925C947.392 918.693 942.211 918.02 951 913L955 916L952 912L955 906L951 904L955 901L951 896L955 893L954 889L959 888L959 887C956.688 886.402 955.66 886.151 957 884L956 886L957 886L957 881L967 882L964 887L968 888L968 882L975 882L975 881L976 863C982.201 867.263 981.032 873.169 980 880L987 880L987 888C981.381 890.25 984.859 894.501 986 899L991 899L991 900L987 900L987 901L995 904C993.744 900.836 993.005 899.02 996 897L996 894L993 889L995 886L998 887L996 891L1000 892L999 895L1008 901L1008 902L1006 908L1010 907L1008 904L1011 906L1012 904L1013 904L1011 907L1011 908L1013 911L1017 909L1015 907L1018 906L1020 907L1019 927L1020 928C1025.15 925.929 1024 920.835 1024 916L1024 881L1024 731L953 731L953 670L889 670L889 731L825 731L825 670L820 667L823 667L823 666L822 663L817 660L812 663L809 667L809 666L811 664L804 663C804 660.777 792.075 655.985 791 661z"/>
<path style="fill:#f1f1f1; stroke:none;" d="M889 792L889 854L953 854L953 792L889 792z"/>
<path style="fill:#fdfefe; stroke:none;" d="M976 863C975.894 868.148 970.588 878.058 975 881L975 882L968 882L970 884L970 885L968 888L964 887L967 882L957 881L956 886L957 884L955 887L959 887L959 888L954 889L955 893L951 896L954 897L955 901L951 904L955 906L952 912L955 916L951 913C941.875 916.733 946.385 919.623 951 925L956 923L956 929L948 931L948 927L942 931L943 935L946 933L945 936L948 934L948 938L952 937L951 934L955 933C956.463 941.859 951.936 947.492 963 949L968 947C964.451 951.783 954.222 968.215 948 958L947 958L946 960C939.559 952.71 935.341 964.377 939 965L936 971L941 972L940 977L935 978L936 981L935 981L927 978L929 980L929 981L921 986L928 986L922 990L923 993L921 992L926 992L927 995L919 995L919 996L924 997L924 999L921 1000L922 1003L912 1002L911 997L915 994L904 993C906.777 998.727 910.258 1004.23 917 1005L916 1008C911.645 1006.42 904.197 1003.66 901 1008L900 1008L898 1007L898 1005L902 1005L899 998L904 1000L901 997L898 988C901.541 988.849 903.283 988.275 905 985L900 985L900 984L907 984L907 983L900 983L903 977L903 976C897.544 972.538 896.518 970.964 899 966L883 963L884 958L885 958L885 962L895 962L895 961L887 960L889 956L893 957L891 953L906 953L895 950L902 945C900.168 939.96 907.557 934.292 912 933L912 932L909 932L909 931L920 928C918.095 925.547 915.33 924.674 913 927L912 927L915 924L915 923L911 920L910 920C908.736 922.833 905.546 923.729 905 920L900 922L902 914L899 913L902 909L900 906L897 905C897.989 900.796 898.692 896.65 894 895L894 890L894 889L897 885L892 882C887.779 882.905 889 887.346 889 891L889 916L760 916L760 978L698 978L698 1024L825 1024L825 978L889 978L889 1024L1024 1024L1024 927L1020 928L1019 927L1020 907L1018 906L1015 907L1017 909L1013 911L1011 908L1011 907L1013 904L1012 904L1011 906L1008 904L1010 907L1006 908L1008 902L1008 901L999 895L1000 892L996 891C997.34 888.367 997.556 887.602 995 886L993 889C993.29 891.927 992.895 893.389 996 894L996 897C991.783 897.904 993.139 901.068 995 904L987 901L987 900L991 900L991 899L986 899C985.396 894.386 982.267 890.961 987 888L987 880L980 880C981.439 873.678 982.648 866.162 976 863z"/>
<path style="fill:#f1f1f1; stroke:none;" d="M825 978L825 1024L889 1024L889 978L825 978z"/>
</svg>
