<svg version="1.1" id="Layer_1" xmlns="http://www.w3.org/2000/svg" xmlns:xlink="http://www.w3.org/1999/xlink" x="0px" y="0px"
	 width="100%" viewBox="0 0 1024 576" enable-background="new 0 0 1024 576" xml:space="preserve">
<path fill="#000000" opacity="1.000000" stroke="none" 
	d="
M686.000000,577.000000 
	C457.333344,577.000000 229.166672,577.000000 1.000000,577.000000 
	C1.000000,385.000000 1.000000,193.000000 1.000000,1.000000 
	C342.333344,1.000000 683.666687,1.000000 1025.000000,1.000000 
	C1025.000000,193.000000 1025.000000,385.000000 1025.000000,577.000000 
	C912.166687,577.000000 799.333313,577.000000 686.000000,577.000000 
M970.696838,367.844727 
	C971.132202,364.480133 971.971924,361.110931 971.933533,357.751709 
	C971.759521,342.525024 971.035706,327.300323 971.076050,312.076416 
	C971.136353,289.328857 971.753967,266.583282 971.947876,243.835266 
	C971.996887,238.087494 971.105103,232.334808 971.076904,226.582275 
	C971.053101,221.722244 971.764832,216.861786 971.880188,211.995087 
	C971.902100,211.068909 970.657898,210.112747 969.070740,209.025925 
	C777.989563,209.018051 586.908325,209.006744 395.827118,209.003632 
	C283.710968,209.001816 171.594788,209.039062 59.478756,208.922409 
	C55.032612,208.917786 53.757309,210.169327 53.884933,214.547699 
	C54.183964,224.806519 53.849079,235.082214 54.022053,245.346848 
	C54.161057,253.595642 54.773758,261.835571 54.979286,270.084351 
	C55.140572,276.557587 55.095940,283.040100 54.975388,289.515350 
	C54.698032,304.413300 54.233002,319.308044 54.010223,334.206573 
	C53.856823,344.465668 53.927635,354.729614 54.068008,364.989105 
	C54.081676,365.988068 55.292339,366.970642 56.616814,368.302643 
	C57.392017,368.550018 58.173740,369.030884 58.941433,369.009430 
	C69.071144,368.726654 79.198730,368.085815 89.327126,368.080627 
	C225.590164,368.010742 361.853241,368.016052 498.116333,368.061615 
	C503.564850,368.063446 509.013184,368.894958 514.461609,368.894897 
	C519.988892,368.894867 525.519470,368.033264 531.042908,368.091400 
	C546.201050,368.251068 561.356201,368.952637 576.512573,368.953949 
	C591.318542,368.955261 606.123962,368.102692 620.930664,368.068176 
	C670.738037,367.952118 720.545898,368.036224 770.353577,368.038513 
	C805.067688,368.040131 839.782104,367.943420 874.495850,368.057495 
	C903.759644,368.153687 933.022461,368.506256 962.286133,368.692352 
	C964.852173,368.708679 967.420715,368.331085 970.696838,367.844727 
z"/>
<path fill="#F5F5F5" opacity="1.000000" stroke="none" 
	d="
M55.947372,367.960846 
	C55.292339,366.970642 54.081676,365.988068 54.068008,364.989105 
	C53.927635,354.729614 53.856823,344.465668 54.010223,334.206573 
	C54.233002,319.308044 54.698032,304.413300 54.975388,289.515350 
	C55.095940,283.040100 55.140572,276.557587 54.979286,270.084351 
	C54.773758,261.835571 54.161057,253.595642 54.022053,245.346848 
	C53.849079,235.082214 54.183964,224.806519 53.884933,214.547699 
	C53.757309,210.169327 55.032612,208.917786 59.478756,208.922409 
	C171.594788,209.039062 283.710968,209.001816 395.827118,209.003632 
	C586.908325,209.006744 777.989563,209.018051 969.500732,209.399902 
	C969.894226,209.972931 969.857727,210.172012 969.373657,210.269531 
	C960.095581,210.155853 951.265015,210.132980 942.434509,210.133286 
	C650.463501,210.143539 358.492523,210.156006 66.521530,210.168152 
	C63.098682,210.168289 59.675835,210.168167 56.124847,210.168167 
	C56.124847,229.767487 56.102234,248.593674 56.129833,267.419800 
	C56.178444,300.576355 56.257721,333.732819 56.251869,367.164917 
	C56.102177,367.613953 56.024776,367.787415 55.947372,367.960846 
z"/>
<path fill="#474647" opacity="1.000000" stroke="none" 
	d="
M56.282093,368.131744 
	C56.024776,367.787415 56.102177,367.613953 56.699753,367.154968 
	C59.719360,366.898224 62.218792,366.952118 64.718224,366.952209 
	C284.691833,366.960022 504.665436,366.971405 724.639038,366.963593 
	C806.295044,366.960693 887.951111,366.912231 969.704346,367.196930 
	C969.863770,367.718353 969.925964,367.927399 969.988098,368.136444 
	C967.420715,368.331085 964.852173,368.708679 962.286133,368.692352 
	C933.022461,368.506256 903.759644,368.153687 874.495850,368.057495 
	C839.782104,367.943420 805.067688,368.040131 770.353577,368.038513 
	C720.545898,368.036224 670.738037,367.952118 620.930664,368.068176 
	C606.123962,368.102692 591.318542,368.955261 576.512573,368.953949 
	C561.356201,368.952637 546.201050,368.251068 531.042908,368.091400 
	C525.519470,368.033264 519.988892,368.894867 514.461609,368.894897 
	C509.013184,368.894958 503.564850,368.063446 498.116333,368.061615 
	C361.853241,368.016052 225.590164,368.010742 89.327126,368.080627 
	C79.198730,368.085815 69.071144,368.726654 58.941433,369.009430 
	C58.173740,369.030884 57.392017,368.550018 56.282093,368.131744 
z"/>
<path fill="#FDFCFC" opacity="1.000000" stroke="none" 
	d="
M970.342468,367.990601 
	C969.925964,367.927399 969.863770,367.718353 969.801514,366.744812 
	C969.808105,314.110565 969.814697,262.240845 969.821228,210.371109 
	C969.857727,210.172012 969.894226,209.972931 969.964233,209.472137 
	C970.657898,210.112747 971.902100,211.068909 971.880188,211.995087 
	C971.764832,216.861786 971.053101,221.722244 971.076904,226.582275 
	C971.105103,232.334808 971.996887,238.087494 971.947876,243.835266 
	C971.753967,266.583282 971.136353,289.328857 971.076050,312.076416 
	C971.035706,327.300323 971.759521,342.525024 971.933533,357.751709 
	C971.971924,361.110931 971.132202,364.480133 970.342468,367.990601 
z"/>
<path fill="#030202" opacity="1.000000" stroke="none" 
	d="
M969.373657,210.269531 
	C969.814697,262.240845 969.808105,314.110565 969.704346,366.432434 
	C887.951111,366.912231 806.295044,366.960693 724.639038,366.963593 
	C504.665436,366.971405 284.691833,366.960022 64.718224,366.952209 
	C62.218792,366.952118 59.719360,366.898224 56.772041,366.879395 
	C56.257721,333.732819 56.178444,300.576355 56.129833,267.419800 
	C56.102234,248.593674 56.124847,229.767487 56.124847,210.168167 
	C59.675835,210.168167 63.098682,210.168289 66.521530,210.168152 
	C358.492523,210.156006 650.463501,210.143539 942.434509,210.133286 
	C951.265015,210.132980 960.095581,210.155853 969.373657,210.269531 
M878.178528,266.715546 
	C878.142578,267.476776 878.106628,268.237976 877.784729,269.751373 
	C872.422729,301.197418 867.060669,332.643433 861.634277,364.466949 
	C871.050842,364.466949 879.827820,364.466949 889.061462,364.466949 
	C890.700012,354.448395 892.340881,344.415802 894.013977,334.186127 
	C895.358398,334.980133 896.179871,335.465271 897.537109,336.408813 
	C900.361023,337.530334 903.184998,338.651855 906.483032,339.988770 
	C906.654053,339.958740 906.825012,339.928711 907.779907,340.158447 
	C915.061768,341.366943 922.164978,340.897217 929.699585,337.897400 
	C932.187256,336.452393 934.674988,335.007385 937.797974,333.257660 
	C940.650574,329.890778 943.503174,326.523865 946.866455,322.697906 
	C948.272827,318.806885 949.679199,314.915833 951.561279,310.437561 
	C952.604736,304.387512 954.020081,298.372803 954.598633,292.278625 
	C955.341614,284.453705 955.170044,276.617950 949.643616,269.366638 
	C943.654907,262.279388 935.650146,260.161804 926.830017,260.315979 
	C917.962585,260.470978 910.094116,263.523071 903.226135,269.791168 
	C902.939026,266.812439 902.722778,264.569397 902.511963,262.382507 
	C899.631287,262.382507 897.316956,262.382507 894.090637,262.187714 
	C889.729553,262.244324 885.368408,262.300903 880.338501,262.178925 
	C879.721313,263.456573 879.104126,264.734222 878.178528,266.715546 
M860.786499,297.751221 
	C862.832031,290.944519 865.039246,284.180786 866.864563,277.315521 
	C868.026367,272.945740 866.461670,271.052338 861.869385,271.028992 
	C852.919739,270.983459 843.968933,271.161407 834.142700,271.062012 
	C831.759644,271.104401 829.376648,271.146790 826.092590,270.933716 
	C821.398560,271.038940 816.704468,271.144196 811.179443,271.078094 
	C808.539490,271.128967 805.899536,271.179840 802.432861,271.072327 
	C791.590149,270.886963 791.705139,270.841400 787.810791,261.015656 
	C787.146362,259.339172 785.159241,257.295532 783.546692,257.063202 
	C779.632141,256.499268 775.534546,256.572479 771.604797,257.095673 
	C770.247620,257.276337 769.168579,259.545563 767.962463,260.860748 
	C769.201050,261.913605 770.312500,263.218842 771.723389,263.929810 
	C772.650940,264.397217 774.039551,264.172058 775.171509,263.972382 
	C779.694092,263.174622 781.928528,264.738770 783.140503,269.472107 
	C785.901917,280.256531 789.242065,290.900085 792.605042,301.519165 
	C793.751770,305.140381 794.155273,308.090485 792.191406,311.831665 
	C788.151917,319.526611 792.181091,325.392822 800.840759,325.378296 
	C816.833191,325.351471 832.826416,325.398163 848.817444,325.237335 
	C851.754456,325.207794 856.459167,326.913116 856.244141,321.441437 
	C856.045227,316.378540 851.575073,318.274139 848.809143,318.246094 
	C833.650269,318.092438 818.488159,318.238892 803.329895,318.059265 
	C801.809875,318.041229 800.307678,316.525604 798.797241,315.705017 
	C800.297302,314.512787 801.704163,313.162476 803.338806,312.198517 
	C804.094788,311.752716 805.297180,312.090759 806.293701,312.022064 
	C819.237183,311.129883 832.179932,310.228424 846.013123,309.457184 
	C858.911682,308.446533 859.777649,307.747681 860.786499,297.751221 
M470.322510,283.931091 
	C476.575592,287.286133 474.289215,292.895996 473.577972,297.719330 
	C471.567871,311.351532 469.132172,324.921021 466.814331,338.813965 
	C476.075500,338.813965 484.988922,338.813965 494.135254,338.813965 
	C495.738922,329.441406 497.425293,320.286102 498.846100,311.089783 
	C500.343994,301.394501 502.274780,291.694672 502.766937,281.933807 
	C503.360016,270.169861 496.135834,262.487274 484.508148,260.858643 
	C472.104248,259.121277 461.162354,262.333557 451.949951,270.981995 
	C443.948822,257.432983 421.061371,256.344971 405.760956,270.218201 
	C405.412415,267.469727 405.090210,264.929108 404.767853,262.387054 
	C396.681152,262.387054 388.937378,262.387054 381.120453,262.387054 
	C376.648529,287.978729 372.224365,313.297028 367.752472,338.888550 
	C377.114960,338.888550 385.905884,338.888550 394.932861,338.888550 
	C395.259155,337.575714 395.644379,336.324677 395.876495,335.045807 
	C398.253815,321.949097 400.574890,308.842102 402.997559,295.753876 
	C403.386658,293.651672 403.941498,291.503754 404.864227,289.591431 
	C407.390411,284.355896 414.586517,281.596375 420.233063,283.478760 
	C424.565369,284.923004 425.924988,288.187469 424.877502,295.176147 
	C424.162445,299.946869 423.222229,304.683380 422.423981,309.442139 
	C420.787476,319.198395 419.178802,328.959290 417.549866,338.771393 
	C427.033173,338.771393 435.946594,338.771393 444.966827,338.771393 
	C447.410339,324.207642 449.769226,309.926331 452.212830,295.659485 
	C453.945007,285.546234 459.425507,281.802551 470.322510,283.931091 
M106.654007,261.754791 
	C109.125923,261.541290 111.597145,261.152832 114.069870,261.142975 
	C128.704453,261.084656 143.339401,261.114258 158.315689,261.114258 
	C159.670624,253.283783 160.980621,245.713058 162.303909,238.065475 
	C142.676300,238.065475 123.681290,237.347610 104.768166,238.283783 
	C88.494331,239.089340 77.833794,248.587143 73.934952,263.017303 
	C67.729713,285.983795 77.651131,299.289398 101.538208,300.050232 
	C107.528458,300.240997 113.526695,300.329407 119.503868,300.726562 
	C123.055107,300.962555 126.147560,302.326050 126.299316,306.585388 
	C126.444412,310.657410 124.712288,313.824829 120.657150,314.977142 
	C118.304077,315.645813 115.736839,315.765045 113.264397,315.775970 
	C97.968605,315.843445 82.672379,315.809906 67.172394,315.809906 
	C65.767113,323.705536 64.434196,331.194580 63.112152,338.622528 
	C63.545170,338.890381 63.824677,339.214813 64.103172,339.213959 
	C83.588959,339.153442 103.101891,339.672150 122.552032,338.797150 
	C139.038101,338.055481 150.474106,327.590271 154.477295,311.844116 
	C159.894760,290.534882 151.656158,278.593262 129.814392,276.561127 
	C123.030106,275.929932 116.169746,276.137238 109.346565,275.894470 
	C105.917191,275.772430 102.316040,275.336670 101.303848,271.388855 
	C100.241753,267.246399 101.758942,263.864166 106.654007,261.754791 
M625.500000,315.960602 
	C616.707703,315.960602 607.915405,315.960602 598.813110,315.960602 
	C597.464417,323.888306 596.195740,331.345306 594.868469,339.147186 
	C614.403748,339.147186 633.380554,339.738556 652.304932,338.994690 
	C675.012024,338.102081 688.594360,322.665497 687.971313,299.968140 
	C687.665283,288.818695 681.662048,281.064789 670.846985,278.232269 
	C667.811951,277.437347 664.622986,277.064240 661.481873,276.873657 
	C654.331970,276.439880 647.163696,276.316010 640.011597,275.911774 
	C636.359070,275.705353 633.393799,274.164124 633.185913,270.049408 
	C632.991699,266.205292 634.715149,263.192200 638.561584,262.003357 
	C640.431641,261.425354 642.484009,261.252045 644.457764,261.228790 
	C650.955261,261.152283 657.454468,261.236755 663.953064,261.243286 
	C672.583923,261.251923 681.214783,261.245392 689.917908,261.245392 
	C691.355164,253.212830 692.690918,245.747650 694.137939,237.660416 
	C678.784363,237.660416 663.985962,237.617264 649.188110,237.687256 
	C644.862000,237.707703 640.488403,237.702820 636.220337,238.304047 
	C615.482056,241.225327 603.814880,255.183441 604.299805,276.195374 
	C604.558777,287.417236 610.250977,295.156219 621.170471,298.129944 
	C625.770508,299.382629 630.659912,299.713348 635.447144,300.101349 
	C641.251526,300.571716 647.125854,300.328888 652.897644,301.008484 
	C658.319824,301.646942 660.346802,306.023773 658.000366,310.947540 
	C656.307373,314.500122 653.304871,315.963867 649.494995,315.968079 
	C641.830017,315.976593 634.164978,315.964233 625.500000,315.960602 
M561.620361,340.231323 
	C574.112122,337.914886 583.422913,331.301300 588.473999,319.516602 
	C593.127869,308.658600 594.934143,297.089966 594.680481,285.370209 
	C594.362915,270.697388 586.416565,262.211395 571.874939,260.534271 
	C561.237427,259.307404 551.498779,261.900970 543.138123,269.269165 
	C542.748108,266.607880 542.425720,264.407837 542.121155,262.329712 
	C534.006775,262.329712 526.411438,262.329712 518.466797,262.329712 
	C512.630737,296.400299 506.832947,330.247681 501.003113,364.282013 
	C510.505463,364.282013 519.458984,364.282013 528.554382,364.282013 
	C530.212891,354.161621 531.835815,344.258850 533.554077,333.773987 
	C541.831116,341.171509 551.083069,341.726379 561.620361,340.231323 
M702.552063,271.003571 
	C698.726257,293.542816 694.900452,316.082062 691.039246,338.830048 
	C700.345886,338.830048 709.116882,338.830048 718.099792,338.830048 
	C718.420288,337.398132 718.761169,336.128815 718.984436,334.839111 
	C721.338745,321.237457 723.543640,307.608276 726.063843,294.037598 
	C727.597595,285.779022 735.573242,281.273041 744.469177,283.219055 
	C750.454163,284.528259 752.023743,288.479340 750.411316,297.749329 
	C748.048401,311.333588 745.760559,324.930878 743.414368,338.677002 
	C752.583313,338.677002 761.478088,338.677002 770.529297,338.677002 
	C772.747925,325.951691 775.112488,313.547485 777.006836,301.071838 
	C778.075012,294.037476 779.026733,286.867950 778.838135,279.791107 
	C778.620667,271.632080 776.239502,269.838318 768.498169,269.663330 
	C764.763916,269.578888 762.086670,268.816589 761.780457,264.217987 
	C761.697632,262.973267 759.398438,261.009857 757.964233,260.862885 
	C749.115906,259.956329 740.721191,261.435944 733.372559,266.909698 
	C732.422913,267.617096 731.393250,268.217072 729.803345,269.257751 
	C731.625671,258.358124 733.310242,248.282471 735.040039,237.936325 
	C725.737244,237.936325 716.995117,237.936325 708.007996,237.936325 
	C706.227356,248.844376 704.488037,259.499664 702.552063,271.003571 
M366.059357,262.104736 
	C358.136749,262.104736 350.214142,262.104736 342.309509,262.104736 
	C341.429810,267.166504 340.671234,271.588501 339.891449,276.006714 
	C337.956024,286.972900 336.283051,297.995026 333.975494,308.882568 
	C332.390839,316.359467 324.562958,320.172607 316.168823,318.289856 
	C309.776489,316.856079 308.378998,313.842560 309.862488,304.666351 
	C310.101227,303.189606 310.374634,301.718506 310.623901,300.243439 
	C312.747559,287.676086 314.869354,275.108398 317.008240,262.442871 
	C307.508118,262.442871 298.459106,262.442871 289.436371,262.442871 
	C287.611664,273.306763 285.722015,283.780304 284.127686,294.298645 
	C282.883759,302.505249 281.383270,310.747833 281.123230,319.009888 
	C280.792236,329.526611 287.084473,337.351044 297.173798,339.699280 
	C301.461761,340.697266 306.103790,340.815033 310.520355,340.480591 
	C318.667053,339.863678 325.843628,336.548248 332.107941,330.276184 
	C332.501740,333.582123 332.808990,336.161713 333.119293,338.766663 
	C341.159576,338.766663 348.928955,338.766663 356.880157,338.766663 
	C358.108978,331.173920 359.260742,323.794189 360.503815,316.429810 
	C363.383026,299.372192 366.263245,282.314392 369.264832,265.278137 
	C369.654297,263.067535 369.803314,261.666534 366.059357,262.104736 
M169.199844,295.716980 
	C168.096146,303.775635 166.405075,311.807739 166.039871,319.899750 
	C165.599762,329.651489 170.213226,336.068085 179.820557,337.911346 
	C188.028564,339.486176 196.627914,339.080780 205.060654,339.339691 
	C205.978378,339.367889 207.591003,338.130493 207.775345,337.248840 
	C209.082962,330.995117 210.102203,324.681030 211.298248,317.905182 
	C207.383133,317.905182 204.049774,318.152344 200.767807,317.847046 
	C195.893295,317.393616 193.610306,314.889526 194.230133,310.288330 
	C195.445770,301.263855 197.045914,292.291138 198.554947,282.872620 
	C204.932404,282.872620 210.998306,282.872620 217.273117,282.872620 
	C218.459137,275.822937 219.570633,269.216187 220.771729,262.076782 
	C214.262527,262.076782 208.317398,262.076782 202.046616,262.076782 
	C203.062302,255.721512 203.999207,249.859100 204.983047,243.702988 
	C195.878357,243.702988 187.126862,243.702988 178.175140,243.702988 
	C177.041122,249.872101 175.916534,255.989960 174.784592,262.147766 
	C171.208527,262.147766 168.226120,262.147766 164.740082,262.147766 
	C163.494095,268.986084 162.260834,275.754700 160.929260,283.062805 
	C164.585190,283.062805 167.804321,283.062805 171.316605,283.062805 
	C170.612335,287.335754 169.991913,291.099976 169.199844,295.716980 
M219.987900,319.446411 
	C218.946625,325.804016 217.905350,332.161591 216.818878,338.795044 
	C226.135986,338.795044 235.032333,338.795044 244.231918,338.795044 
	C246.485855,325.489471 248.734818,312.386810 250.916794,299.272980 
	C252.428528,290.187439 256.827393,285.797791 266.065643,284.949432 
	C270.292786,284.561218 274.585144,284.883392 278.996277,284.883392 
	C280.391235,276.759949 281.700226,269.137085 283.042572,261.320160 
	C271.558228,259.613281 262.307709,262.684479 254.617065,272.150146 
	C254.372437,268.185089 254.194443,265.300140 254.013000,262.359192 
	C245.667389,262.359192 237.764038,262.359192 229.540359,262.359192 
	C226.370010,281.239838 223.234634,299.912231 219.987900,319.446411 
M836.462830,250.146561 
	C828.076050,248.539398 828.354065,240.562531 825.342407,234.662949 
	C825.004395,245.815353 818.517700,250.796844 807.970581,252.107132 
	C812.681763,254.154465 817.478455,254.992706 820.294861,257.810303 
	C823.161621,260.678284 824.078552,265.495148 825.958252,269.702515 
	C826.929504,266.820160 827.395386,263.730408 828.941589,261.339203 
	C830.424438,259.045929 832.810791,257.110748 835.200745,255.694229 
	C837.551331,254.301071 840.405273,253.757248 843.760010,252.589508 
	C840.930298,251.661179 839.044800,251.042618 836.462830,250.146561 
M807.145386,327.859100 
	C800.928955,328.119904 797.237427,332.336456 799.872009,336.724670 
	C801.080994,338.738342 804.205322,340.860596 806.313232,340.719788 
	C808.393982,340.580780 811.162170,338.014038 812.066162,335.857391 
	C813.548279,332.321167 811.247192,329.638885 807.145386,327.859100 
M845.361389,327.869781 
	C839.644775,328.767242 836.425354,332.793182 838.860474,336.752777 
	C840.085144,338.744019 843.303772,340.836945 845.370850,340.609833 
	C847.451782,340.381165 850.174866,337.651642 850.914062,335.447083 
	C852.125061,331.835358 849.778809,329.196136 845.361389,327.869781 
z"/>
<path fill="#FCFCFA" opacity="1.000000" stroke="none" 
	d="
M469.938049,283.797546 
	C459.425507,281.802551 453.945007,285.546234 452.212830,295.659485 
	C449.769226,309.926331 447.410339,324.207642 444.966827,338.771393 
	C435.946594,338.771393 427.033173,338.771393 417.549866,338.771393 
	C419.178802,328.959290 420.787476,319.198395 422.423981,309.442139 
	C423.222229,304.683380 424.162445,299.946869 424.877502,295.176147 
	C425.924988,288.187469 424.565369,284.923004 420.233063,283.478760 
	C414.586517,281.596375 407.390411,284.355896 404.864227,289.591431 
	C403.941498,291.503754 403.386658,293.651672 402.997559,295.753876 
	C400.574890,308.842102 398.253815,321.949097 395.876495,335.045807 
	C395.644379,336.324677 395.259155,337.575714 394.932861,338.888550 
	C385.905884,338.888550 377.114960,338.888550 367.752472,338.888550 
	C372.224365,313.297028 376.648529,287.978729 381.120453,262.387054 
	C388.937378,262.387054 396.681152,262.387054 404.767853,262.387054 
	C405.090210,264.929108 405.412415,267.469727 405.760956,270.218201 
	C421.061371,256.344971 443.948822,257.432983 451.949951,270.981995 
	C461.162354,262.333557 472.104248,259.121277 484.508148,260.858643 
	C496.135834,262.487274 503.360016,270.169861 502.766937,281.933807 
	C502.274780,291.694672 500.343994,301.394501 498.846100,311.089783 
	C497.425293,320.286102 495.738922,329.441406 494.135254,338.813965 
	C484.988922,338.813965 476.075500,338.813965 466.814331,338.813965 
	C469.132172,324.921021 471.567871,311.351532 473.577972,297.719330 
	C474.289215,292.895996 476.575592,287.286133 469.938049,283.797546 
z"/>
<path fill="#FDFCFC" opacity="1.000000" stroke="none" 
	d="
M106.260040,261.868469 
	C101.758942,263.864166 100.241753,267.246399 101.303848,271.388855 
	C102.316040,275.336670 105.917191,275.772430 109.346565,275.894470 
	C116.169746,276.137238 123.030106,275.929932 129.814392,276.561127 
	C151.656158,278.593262 159.894760,290.534882 154.477295,311.844116 
	C150.474106,327.590271 139.038101,338.055481 122.552032,338.797150 
	C103.101891,339.672150 83.588959,339.153442 64.103172,339.213959 
	C63.824677,339.214813 63.545170,338.890381 63.112152,338.622528 
	C64.434196,331.194580 65.767113,323.705536 67.172394,315.809906 
	C82.672379,315.809906 97.968605,315.843445 113.264397,315.775970 
	C115.736839,315.765045 118.304077,315.645813 120.657150,314.977142 
	C124.712288,313.824829 126.444412,310.657410 126.299316,306.585388 
	C126.147560,302.326050 123.055107,300.962555 119.503868,300.726562 
	C113.526695,300.329407 107.528458,300.240997 101.538208,300.050232 
	C77.651131,299.289398 67.729713,285.983795 73.934952,263.017303 
	C77.833794,248.587143 88.494331,239.089340 104.768166,238.283783 
	C123.681290,237.347610 142.676300,238.065475 162.303909,238.065475 
	C160.980621,245.713058 159.670624,253.283783 158.315689,261.114258 
	C143.339401,261.114258 128.704453,261.084656 114.069870,261.142975 
	C111.597145,261.152832 109.125923,261.541290 106.260040,261.868469 
z"/>
<path fill="#FAC341" opacity="1.000000" stroke="none" 
	d="
M626.000000,315.960541 
	C634.164978,315.964233 641.830017,315.976593 649.494995,315.968079 
	C653.304871,315.963867 656.307373,314.500122 658.000366,310.947540 
	C660.346802,306.023773 658.319824,301.646942 652.897644,301.008484 
	C647.125854,300.328888 641.251526,300.571716 635.447144,300.101349 
	C630.659912,299.713348 625.770508,299.382629 621.170471,298.129944 
	C610.250977,295.156219 604.558777,287.417236 604.299805,276.195374 
	C603.814880,255.183441 615.482056,241.225327 636.220337,238.304047 
	C640.488403,237.702820 644.862000,237.707703 649.188110,237.687256 
	C663.985962,237.617264 678.784363,237.660416 694.137939,237.660416 
	C692.690918,245.747650 691.355164,253.212830 689.917908,261.245392 
	C681.214783,261.245392 672.583923,261.251923 663.953064,261.243286 
	C657.454468,261.236755 650.955261,261.152283 644.457764,261.228790 
	C642.484009,261.252045 640.431641,261.425354 638.561584,262.003357 
	C634.715149,263.192200 632.991699,266.205292 633.185913,270.049408 
	C633.393799,274.164124 636.359070,275.705353 640.011597,275.911774 
	C647.163696,276.316010 654.331970,276.439880 661.481873,276.873657 
	C664.622986,277.064240 667.811951,277.437347 670.846985,278.232269 
	C681.662048,281.064789 687.665283,288.818695 687.971313,299.968140 
	C688.594360,322.665497 675.012024,338.102081 652.304932,338.994690 
	C633.380554,339.738556 614.403748,339.147186 594.868469,339.147186 
	C596.195740,331.345306 597.464417,323.888306 598.813110,315.960602 
	C607.915405,315.960602 616.707703,315.960602 626.000000,315.960541 
z"/>
<path fill="#FBFBFA" opacity="1.000000" stroke="none" 
	d="
M561.189087,340.299255 
	C551.083069,341.726379 541.831116,341.171509 533.554077,333.773987 
	C531.835815,344.258850 530.212891,354.161621 528.554382,364.282013 
	C519.458984,364.282013 510.505463,364.282013 501.003113,364.282013 
	C506.832947,330.247681 512.630737,296.400299 518.466797,262.329712 
	C526.411438,262.329712 534.006775,262.329712 542.121155,262.329712 
	C542.425720,264.407837 542.748108,266.607880 543.138123,269.269165 
	C551.498779,261.900970 561.237427,259.307404 571.874939,260.534271 
	C586.416565,262.211395 594.362915,270.697388 594.680481,285.370209 
	C594.934143,297.089966 593.127869,308.658600 588.473999,319.516602 
	C583.422913,331.301300 574.112122,337.914886 561.189087,340.299255 
M563.702209,309.863861 
	C564.725952,304.326538 566.283569,298.815094 566.553711,293.241241 
	C566.693970,290.347687 565.397583,286.355682 563.296692,284.570068 
	C556.224060,278.558777 542.428955,283.593872 540.456543,292.611511 
	C539.218872,298.270142 538.415100,304.029785 537.577209,309.767548 
	C537.008484,313.662323 538.586914,316.489532 542.299377,318.096436 
	C550.496277,321.644440 559.283447,318.531372 563.702209,309.863861 
z"/>
<path fill="#F9C341" opacity="1.000000" stroke="none" 
	d="
M702.650391,270.579254 
	C704.488037,259.499664 706.227356,248.844376 708.007996,237.936325 
	C716.995117,237.936325 725.737244,237.936325 735.040039,237.936325 
	C733.310242,248.282471 731.625671,258.358124 729.803345,269.257751 
	C731.393250,268.217072 732.422913,267.617096 733.372559,266.909698 
	C740.721191,261.435944 749.115906,259.956329 757.964233,260.862885 
	C759.398438,261.009857 761.697632,262.973267 761.780457,264.217987 
	C762.086670,268.816589 764.763916,269.578888 768.498169,269.663330 
	C776.239502,269.838318 778.620667,271.632080 778.838135,279.791107 
	C779.026733,286.867950 778.075012,294.037476 777.006836,301.071838 
	C775.112488,313.547485 772.747925,325.951691 770.529297,338.677002 
	C761.478088,338.677002 752.583313,338.677002 743.414368,338.677002 
	C745.760559,324.930878 748.048401,311.333588 750.411316,297.749329 
	C752.023743,288.479340 750.454163,284.528259 744.469177,283.219055 
	C735.573242,281.273041 727.597595,285.779022 726.063843,294.037598 
	C723.543640,307.608276 721.338745,321.237457 718.984436,334.839111 
	C718.761169,336.128815 718.420288,337.398132 718.099792,338.830048 
	C709.116882,338.830048 700.345886,338.830048 691.039246,338.830048 
	C694.900452,316.082062 698.726257,293.542816 702.650391,270.579254 
z"/>
<path fill="#FBFBFA" opacity="1.000000" stroke="none" 
	d="
M366.508423,262.103149 
	C369.803314,261.666534 369.654297,263.067535 369.264832,265.278137 
	C366.263245,282.314392 363.383026,299.372192 360.503815,316.429810 
	C359.260742,323.794189 358.108978,331.173920 356.880157,338.766663 
	C348.928955,338.766663 341.159576,338.766663 333.119293,338.766663 
	C332.808990,336.161713 332.501740,333.582123 332.107941,330.276184 
	C325.843628,336.548248 318.667053,339.863678 310.520355,340.480591 
	C306.103790,340.815033 301.461761,340.697266 297.173798,339.699280 
	C287.084473,337.351044 280.792236,329.526611 281.123230,319.009888 
	C281.383270,310.747833 282.883759,302.505249 284.127686,294.298645 
	C285.722015,283.780304 287.611664,273.306763 289.436371,262.442871 
	C298.459106,262.442871 307.508118,262.442871 317.008240,262.442871 
	C314.869354,275.108398 312.747559,287.676086 310.623901,300.243439 
	C310.374634,301.718506 310.101227,303.189606 309.862488,304.666351 
	C308.378998,313.842560 309.776489,316.856079 316.168823,318.289856 
	C324.562958,320.172607 332.390839,316.359467 333.975494,308.882568 
	C336.283051,297.995026 337.956024,286.972900 339.891449,276.006714 
	C340.671234,271.588501 341.429810,267.166504 342.309509,262.104736 
	C350.214142,262.104736 358.136749,262.104736 366.508423,262.103149 
z"/>
<path fill="#FAFAF9" opacity="1.000000" stroke="none" 
	d="
M169.285660,295.290588 
	C169.991913,291.099976 170.612335,287.335754 171.316605,283.062805 
	C167.804321,283.062805 164.585190,283.062805 160.929260,283.062805 
	C162.260834,275.754700 163.494095,268.986084 164.740082,262.147766 
	C168.226120,262.147766 171.208527,262.147766 174.784592,262.147766 
	C175.916534,255.989960 177.041122,249.872101 178.175140,243.702988 
	C187.126862,243.702988 195.878357,243.702988 204.983047,243.702988 
	C203.999207,249.859100 203.062302,255.721512 202.046616,262.076782 
	C208.317398,262.076782 214.262527,262.076782 220.771729,262.076782 
	C219.570633,269.216187 218.459137,275.822937 217.273117,282.872620 
	C210.998306,282.872620 204.932404,282.872620 198.554947,282.872620 
	C197.045914,292.291138 195.445770,301.263855 194.230133,310.288330 
	C193.610306,314.889526 195.893295,317.393616 200.767807,317.847046 
	C204.049774,318.152344 207.383133,317.905182 211.298248,317.905182 
	C210.102203,324.681030 209.082962,330.995117 207.775345,337.248840 
	C207.591003,338.130493 205.978378,339.367889 205.060654,339.339691 
	C196.627914,339.080780 188.028564,339.486176 179.820557,337.911346 
	C170.213226,336.068085 165.599762,329.651489 166.039871,319.899750 
	C166.405075,311.807739 168.096146,303.775635 169.285660,295.290588 
z"/>
<path fill="#FAFAF9" opacity="1.000000" stroke="none" 
	d="
M220.043579,319.015503 
	C223.234634,299.912231 226.370010,281.239838 229.540359,262.359192 
	C237.764038,262.359192 245.667389,262.359192 254.013000,262.359192 
	C254.194443,265.300140 254.372437,268.185089 254.617065,272.150146 
	C262.307709,262.684479 271.558228,259.613281 283.042572,261.320160 
	C281.700226,269.137085 280.391235,276.759949 278.996277,284.883392 
	C274.585144,284.883392 270.292786,284.561218 266.065643,284.949432 
	C256.827393,285.797791 252.428528,290.187439 250.916794,299.272980 
	C248.734818,312.386810 246.485855,325.489471 244.231918,338.795044 
	C235.032333,338.795044 226.135986,338.795044 216.818878,338.795044 
	C217.905350,332.161591 218.946625,325.804016 220.043579,319.015503 
z"/>
<path fill="#F8C140" opacity="1.000000" stroke="none" 
	d="
M897.001282,335.950409 
	C896.179871,335.465271 895.358398,334.980133 894.013977,334.186127 
	C892.340881,344.415802 890.700012,354.448395 889.061462,364.466949 
	C879.827820,364.466949 871.050842,364.466949 861.634277,364.466949 
	C867.060669,332.643433 872.422729,301.197418 878.335327,269.375641 
	C882.850159,268.302673 885.574158,270.257446 887.576172,273.335602 
	C890.433228,277.728302 892.953552,282.347137 895.942322,286.643585 
	C897.163818,288.399445 899.233887,289.565063 900.967834,291.409271 
	C900.111511,297.166595 899.307739,302.533936 898.268433,307.855255 
	C897.329956,312.660736 898.526367,316.295807 903.161133,318.862427 
	C902.665283,324.662292 904.761841,330.945465 897.512817,333.656860 
	C897.112366,333.806610 897.161438,335.158234 897.001282,335.950409 
z"/>
<path fill="#F1BA42" opacity="1.000000" stroke="none" 
	d="
M845.122925,309.329346 
	C832.179932,310.228424 819.237183,311.129883 806.293701,312.022064 
	C805.297180,312.090759 804.094788,311.752716 803.338806,312.198517 
	C801.704163,313.162476 800.297302,314.512787 798.797241,315.705017 
	C800.307678,316.525604 801.809875,318.041229 803.329895,318.059265 
	C818.488159,318.238892 833.650269,318.092438 848.809143,318.246094 
	C851.575073,318.274139 856.045227,316.378540 856.244141,321.441437 
	C856.459167,326.913116 851.754456,325.207794 848.817444,325.237335 
	C832.826416,325.398163 816.833191,325.351471 800.840759,325.378296 
	C792.181091,325.392822 788.151917,319.526611 792.191406,311.831665 
	C794.155273,308.090485 793.751770,305.140381 792.605042,301.519165 
	C789.242065,290.900085 785.901917,280.256531 783.140503,269.472107 
	C781.928528,264.738770 779.694092,263.174622 775.171509,263.972382 
	C774.039551,264.172058 772.650940,264.397217 771.723389,263.929810 
	C770.312500,263.218842 769.201050,261.913605 767.962463,260.860748 
	C769.168579,259.545563 770.247620,257.276337 771.604797,257.095673 
	C775.534546,256.572479 779.632141,256.499268 783.546692,257.063202 
	C785.159241,257.295532 787.146362,259.339172 787.810791,261.015656 
	C791.705139,270.841400 791.590149,270.886963 802.761780,271.547974 
	C802.059387,273.988983 801.028015,275.954346 799.570740,277.996155 
	C797.409546,278.167999 795.674316,278.263428 793.834900,278.364563 
	C796.866333,290.486359 794.195557,288.940704 808.193115,288.155273 
	C807.405457,284.732117 806.636780,281.391418 806.229004,278.007019 
	C809.168884,276.348724 812.403809,275.263794 812.010437,271.249451 
	C816.704468,271.144196 821.398560,271.038940 826.489563,271.426605 
	C825.929199,274.367279 825.136047,276.775055 828.339111,278.494781 
	C828.148010,279.203217 828.033325,279.606537 827.710571,280.161102 
	C827.642212,280.872528 827.781921,281.432739 827.995728,282.364502 
	C828.009705,283.487793 827.949707,284.239532 827.452576,284.995880 
	C826.138550,285.037842 825.261719,285.075226 824.306824,284.774109 
	C824.254517,283.280701 824.280273,282.125824 824.429688,280.875122 
	C824.710876,280.457794 824.622192,280.206360 824.202271,279.753418 
	C824.029114,279.113586 823.940918,278.745453 823.885620,277.987122 
	C823.375854,276.816132 822.833313,276.035370 822.290771,275.254578 
	C821.860535,276.169769 821.430237,277.084991 820.550415,278.097290 
	C817.045166,278.194427 813.989502,278.194427 810.404907,278.194427 
	C811.082397,282.216705 811.614929,285.378174 812.231567,289.039032 
	C816.515747,288.674011 820.388367,288.344055 824.630493,288.011810 
	C825.985901,288.006958 826.971802,288.004395 828.138367,288.191803 
	C828.588623,288.811829 828.858215,289.241852 829.092651,290.069244 
	C829.037109,291.263763 829.016724,292.060913 828.704468,293.163727 
	C828.412659,296.731903 828.412659,299.994446 828.412659,304.238892 
	C831.788696,303.802155 834.896545,303.400085 838.273804,302.743286 
	C838.609009,301.762695 838.674927,301.036896 838.654297,300.016754 
	C838.756226,299.142975 838.944641,298.563568 839.428467,297.807922 
	C840.990417,296.789612 842.257019,295.947571 843.494019,295.441101 
	C843.283813,296.186249 843.103271,296.595825 842.767944,297.081177 
	C842.546082,297.248749 842.402527,297.372925 842.425293,297.426575 
	C842.508972,297.623993 842.647766,297.797974 842.791626,298.262268 
	C842.570312,299.036407 842.323181,299.529114 841.842529,300.148010 
	C841.714355,300.846313 841.819824,301.418427 842.177917,302.247009 
	C843.628357,302.490234 844.826050,302.476959 845.990173,302.897705 
	C845.678650,305.330963 845.400757,307.330170 845.122925,309.329346 
M798.244019,293.344055 
	C799.188660,297.283875 800.133301,301.223694 801.100891,305.259338 
	C804.570068,305.044403 807.330383,304.873383 810.663513,304.666870 
	C809.852722,300.418030 809.153931,296.755951 808.443970,293.035553 
	C805.021423,293.035553 802.041077,293.035553 798.244019,293.344055 
M817.581421,292.959045 
	C816.130981,292.959045 814.680481,292.959045 812.745361,292.959045 
	C813.382141,296.949463 813.939087,300.439758 814.560303,304.332764 
	C817.918457,304.151215 820.949524,303.987366 823.823853,303.831970 
	C823.823853,299.928436 823.823853,296.558746 823.823853,292.958435 
	C821.783752,292.958435 820.155823,292.958435 817.581421,292.959045 
z"/>
<path fill="#F8C140" opacity="1.000000" stroke="none" 
	d="
M895.002563,262.382507 
	C897.316956,262.382507 899.631287,262.382507 902.511963,262.382507 
	C902.722778,264.569397 902.939026,266.812439 903.226135,269.791168 
	C910.094116,263.523071 917.962585,260.470978 926.830017,260.315979 
	C935.650146,260.161804 943.654907,262.279388 949.364929,269.697693 
	C948.011353,271.694092 947.091858,273.491791 945.817810,274.987457 
	C944.547485,276.478699 943.054382,278.569336 941.425476,278.808960 
	C937.495850,279.386963 933.577698,279.621826 932.203796,284.082672 
	C930.512695,289.573425 932.498840,295.045807 936.488037,298.372437 
	C938.051086,299.675842 939.421082,301.540222 940.172058,303.430023 
	C943.149231,310.920990 943.045593,310.962158 951.085571,311.024811 
	C949.679199,314.915833 948.272827,318.806885 946.293823,322.744720 
	C944.681396,320.950592 943.685486,319.083130 942.593811,317.273407 
	C938.608887,310.667542 933.398621,305.767426 925.244446,304.604004 
	C925.828979,300.633850 926.669006,297.083649 926.997009,293.486755 
	C927.624329,286.607941 924.424927,282.891815 917.575684,282.292175 
	C915.618652,282.120819 913.629211,282.321136 911.319275,282.171021 
	C906.953308,278.171631 903.260010,273.877869 898.779297,270.691254 
	C895.521912,268.374573 894.660828,265.881042 895.002563,262.382507 
z"/>
<path fill="#FAC341" opacity="1.000000" stroke="none" 
	d="
M925.268677,305.002899 
	C933.398621,305.767426 938.608887,310.667542 942.593811,317.273407 
	C943.685486,319.083130 944.681396,320.950592 946.038452,322.974243 
	C943.503174,326.523865 940.650574,329.890778 937.435669,332.987152 
	C936.404907,328.626343 933.467102,329.357941 931.787903,331.085724 
	C930.201172,332.718323 929.877930,335.578857 928.998962,337.899292 
	C922.164978,340.897217 915.061768,341.366943 907.308350,339.874512 
	C906.560852,339.651489 906.284851,339.712433 906.008911,339.773376 
	C903.184998,338.651855 900.361023,337.530334 897.269165,336.179626 
	C897.161438,335.158234 897.112366,333.806610 897.512817,333.656860 
	C904.761841,330.945465 902.665283,324.662292 903.564941,318.944122 
	C908.001587,321.460083 911.923523,319.178314 915.894470,318.845612 
	C916.780334,325.115997 920.367920,326.544708 925.852478,322.933411 
	C923.787292,320.569641 927.121765,315.514252 921.668762,314.499176 
	C922.971558,311.108429 924.120117,308.055664 925.268677,305.002899 
z"/>
<path fill="#FAC341" opacity="1.000000" stroke="none" 
	d="
M951.323425,310.731201 
	C943.045593,310.962158 943.149231,310.920990 940.172058,303.430023 
	C939.421082,301.540222 938.051086,299.675842 936.488037,298.372437 
	C932.498840,295.045807 930.512695,289.573425 932.203796,284.082672 
	C933.577698,279.621826 937.495850,279.386963 941.425476,278.808960 
	C943.054382,278.569336 944.547485,276.478699 945.817810,274.987457 
	C947.091858,273.491791 948.011353,271.694092 949.452698,270.017181 
	C955.170044,276.617950 955.341614,284.453705 954.598633,292.278625 
	C954.020081,298.372803 952.604736,304.387512 951.323425,310.731201 
z"/>
<path fill="#F8C140" opacity="1.000000" stroke="none" 
	d="
M835.018616,271.246826 
	C843.968933,271.161407 852.919739,270.983459 861.869385,271.028992 
	C866.461670,271.052338 868.026367,272.945740 866.864563,277.315521 
	C865.039246,284.180786 862.832031,290.944519 860.053955,297.736877 
	C857.594849,297.546722 855.868347,297.370911 854.160889,296.868591 
	C854.289246,296.353455 854.398499,296.164795 854.796753,295.908600 
	C855.086548,295.230133 855.087280,294.619202 854.998291,293.712982 
	C854.596619,293.160461 854.284729,292.903259 853.883057,292.518921 
	C853.473999,292.223267 853.219666,292.301239 852.600220,292.721344 
	C850.121216,292.779572 848.072266,292.742188 846.015198,292.355164 
	C845.716248,290.887146 845.425476,289.768738 845.581299,288.640625 
	C848.689392,288.618896 851.370300,288.788055 854.002441,288.504333 
	C855.033264,288.393250 856.487122,287.465820 856.824280,286.564545 
	C857.775391,284.021698 858.247375,281.299652 858.948242,278.487549 
	C854.445679,278.487549 850.506592,278.487549 846.454102,278.487549 
	C845.878235,281.474609 845.346863,284.230835 844.518188,287.148376 
	C843.138672,287.540222 842.056519,287.770691 840.971680,287.573547 
	C841.278748,284.293793 841.588623,281.441681 841.915222,278.435577 
	C838.939514,278.271698 836.469788,278.135681 834.042725,277.621429 
	C834.396484,275.244415 834.707520,273.245605 835.018616,271.246826 
z"/>
<path fill="#FAC341" opacity="1.000000" stroke="none" 
	d="
M894.546631,262.285095 
	C894.660828,265.881042 895.521912,268.374573 898.779297,270.691254 
	C903.260010,273.877869 906.953308,278.171631 910.995239,282.373016 
	C906.458923,284.053375 902.125061,285.613190 900.917908,290.999207 
	C899.233887,289.565063 897.163818,288.399445 895.942322,286.643585 
	C892.953552,282.347137 890.433228,277.728302 887.576172,273.335602 
	C885.574158,270.257446 882.850159,268.302673 878.478271,268.999573 
	C878.106628,268.237976 878.142578,267.476776 878.664917,266.345245 
	C879.769958,264.769135 880.388611,263.563324 881.007324,262.357483 
	C885.368408,262.300903 889.729553,262.244324 894.546631,262.285095 
z"/>
<path fill="#F1BA42" opacity="1.000000" stroke="none" 
	d="
M836.811035,250.285309 
	C839.044800,251.042618 840.930298,251.661179 843.760010,252.589508 
	C840.405273,253.757248 837.551331,254.301071 835.200745,255.694229 
	C832.810791,257.110748 830.424438,259.045929 828.941589,261.339203 
	C827.395386,263.730408 826.929504,266.820160 825.958252,269.702515 
	C824.078552,265.495148 823.161621,260.678284 820.294861,257.810303 
	C817.478455,254.992706 812.681763,254.154465 807.970581,252.107132 
	C818.517700,250.796844 825.004395,245.815353 825.342407,234.662949 
	C828.354065,240.562531 828.076050,248.539398 836.811035,250.285309 
z"/>
<path fill="#F1BA42" opacity="1.000000" stroke="none" 
	d="
M807.533691,327.947235 
	C811.247192,329.638885 813.548279,332.321167 812.066162,335.857391 
	C811.162170,338.014038 808.393982,340.580780 806.313232,340.719788 
	C804.205322,340.860596 801.080994,338.738342 799.872009,336.724670 
	C797.237427,332.336456 800.928955,328.119904 807.533691,327.947235 
z"/>
<path fill="#ECB33B" opacity="1.000000" stroke="none" 
	d="
M845.761292,327.920471 
	C849.778809,329.196136 852.125061,331.835358 850.914062,335.447083 
	C850.174866,337.651642 847.451782,340.381165 845.370850,340.609833 
	C843.303772,340.836945 840.085144,338.744019 838.860474,336.752777 
	C836.425354,332.793182 839.644775,328.767242 845.761292,327.920471 
z"/>
<path fill="#ECB33B" opacity="1.000000" stroke="none" 
	d="
M854.141846,297.195068 
	C855.868347,297.370911 857.594849,297.546722 859.724976,297.893921 
	C859.777649,307.747681 858.911682,308.446533 845.567993,309.393280 
	C845.400757,307.330170 845.678650,305.330963 846.336182,302.773865 
	C850.417969,302.356842 853.450378,301.507050 854.141846,297.195068 
z"/>
<path fill="#ECB33B" opacity="1.000000" stroke="none" 
	d="
M811.594971,271.163757 
	C812.403809,275.263794 809.168884,276.348724 805.809998,278.038055 
	C803.352295,278.048401 801.674500,277.984039 799.996704,277.919678 
	C801.028015,275.954346 802.059387,273.988983 803.175171,271.627197 
	C805.899536,271.179840 808.539490,271.128967 811.594971,271.163757 
z"/>
<path fill="#ECB33B" opacity="1.000000" stroke="none" 
	d="
M834.580688,271.154419 
	C834.707520,273.245605 834.396484,275.244415 833.651489,277.716797 
	C831.616943,278.190186 830.016235,278.189941 828.415527,278.189697 
	C825.136047,276.775055 825.929199,274.367279 826.940063,271.554321 
	C829.376648,271.146790 831.759644,271.104401 834.580688,271.154419 
z"/>
<path fill="#F8C140" opacity="1.000000" stroke="none" 
	d="
M929.349243,337.898346 
	C929.877930,335.578857 930.201172,332.718323 931.787903,331.085724 
	C933.467102,329.357941 936.404907,328.626343 937.117981,333.139496 
	C934.674988,335.007385 932.187256,336.452393 929.349243,337.898346 
z"/>
<path fill="#F8C140" opacity="1.000000" stroke="none" 
	d="
M880.672913,262.268219 
	C880.388611,263.563324 879.769958,264.769135 878.819092,265.993408 
	C879.104126,264.734222 879.721313,263.456573 880.672913,262.268219 
z"/>
<path fill="#ECB33B" opacity="1.000000" stroke="none" 
	d="
M906.245972,339.881073 
	C906.284851,339.712433 906.560852,339.651489 906.916382,339.744629 
	C906.825012,339.928711 906.654053,339.958740 906.245972,339.881073 
z"/>
<path fill="#050505" opacity="1.000000" stroke="none" 
	d="
M563.535400,310.218842 
	C559.283447,318.531372 550.496277,321.644440 542.299377,318.096436 
	C538.586914,316.489532 537.008484,313.662323 537.577209,309.767548 
	C538.415100,304.029785 539.218872,298.270142 540.456543,292.611511 
	C542.428955,283.593872 556.224060,278.558777 563.296692,284.570068 
	C565.397583,286.355682 566.693970,290.347687 566.553711,293.241241 
	C566.283569,298.815094 564.725952,304.326538 563.535400,310.218842 
z"/>
<path fill="#050403" opacity="1.000000" stroke="none" 
	d="
M900.967834,291.409241 
	C902.125061,285.613190 906.458923,284.053375 911.330566,282.552979 
	C913.629211,282.321136 915.618652,282.120819 917.575684,282.292175 
	C924.424927,282.891815 927.624329,286.607941 926.997009,293.486755 
	C926.669006,297.083649 925.828979,300.633850 925.244446,304.604004 
	C924.120117,308.055664 922.971558,311.108429 921.402771,314.649506 
	C919.275391,316.229095 917.568176,317.320343 915.861023,318.411591 
	C911.923523,319.178314 908.001587,321.460083 903.622314,318.451447 
	C898.526367,316.295807 897.329956,312.660736 898.268433,307.855255 
	C899.307739,302.533936 900.111511,297.166595 900.967834,291.409241 
z"/>
<path fill="#181208" opacity="1.000000" stroke="none" 
	d="
M828.339111,278.494781 
	C830.016235,278.189941 831.616943,278.190186 833.608826,278.095032 
	C836.469788,278.135681 838.939514,278.271698 841.915222,278.435577 
	C841.588623,281.441681 841.278748,284.293793 840.616638,287.750580 
	C836.552185,288.794128 832.840027,289.233002 829.127808,289.671906 
	C828.858215,289.241852 828.588623,288.811829 828.175842,287.814758 
	C827.984985,286.495575 827.937378,285.743439 827.889771,284.991302 
	C827.949707,284.239532 828.009705,283.487793 828.078125,282.037231 
	C828.030640,280.895599 827.974670,280.452759 827.918701,280.009888 
	C828.033325,279.606537 828.148010,279.203217 828.339111,278.494781 
z"/>
<path fill="#181208" opacity="1.000000" stroke="none" 
	d="
M824.260986,288.014099 
	C820.388367,288.344055 816.515747,288.674011 812.231567,289.039032 
	C811.614929,285.378174 811.082397,282.216705 810.404907,278.194427 
	C813.989502,278.194427 817.045166,278.194427 820.903076,278.173096 
	C822.421204,278.226959 823.136963,278.302124 823.852783,278.377289 
	C823.940918,278.745453 824.029114,279.113586 824.136719,279.991272 
	C824.156067,280.500854 824.306030,280.970917 824.306030,280.970917 
	C824.280273,282.125824 824.254517,283.280701 824.226562,285.053833 
	C824.236511,286.452728 824.248779,287.233398 824.260986,288.014099 
z"/>
<path fill="#181208" opacity="1.000000" stroke="none" 
	d="
M799.570740,277.996155 
	C801.674500,277.984039 803.352295,278.048401 805.449097,278.081757 
	C806.636780,281.391418 807.405457,284.732117 808.193115,288.155273 
	C794.195557,288.940704 796.866333,290.486359 793.834900,278.364563 
	C795.674316,278.263428 797.409546,278.167999 799.570740,277.996155 
z"/>
<path fill="#0D0A05" opacity="1.000000" stroke="none" 
	d="
M798.652344,293.189819 
	C802.041077,293.035553 805.021423,293.035553 808.443970,293.035553 
	C809.153931,296.755951 809.852722,300.418030 810.663513,304.666870 
	C807.330383,304.873383 804.570068,305.044403 801.100891,305.259338 
	C800.133301,301.223694 799.188660,297.283875 798.652344,293.189819 
z"/>
<path fill="#0D0A05" opacity="1.000000" stroke="none" 
	d="
M839.133057,297.984131 
	C838.944641,298.563568 838.756226,299.142975 838.395142,300.280212 
	C838.149719,301.558014 838.077026,302.278046 838.004395,302.998047 
	C834.896545,303.400085 831.788696,303.802155 828.412659,304.238892 
	C828.412659,299.994446 828.412659,296.731903 829.159973,293.202271 
	C833.110657,292.935181 836.314026,292.935181 839.693542,292.935181 
	C839.482239,294.838470 839.307617,296.411316 839.133057,297.984131 
z"/>
<path fill="#0D0A05" opacity="1.000000" stroke="none" 
	d="
M818.054626,292.958740 
	C820.155823,292.958435 821.783752,292.958435 823.823853,292.958435 
	C823.823853,296.558746 823.823853,299.928436 823.823853,303.831970 
	C820.949524,303.987366 817.918457,304.151215 814.560303,304.332764 
	C813.939087,300.439758 813.382141,296.949463 812.745361,292.959045 
	C814.680481,292.959045 816.130981,292.959045 818.054626,292.958740 
z"/>
<path fill="#050505" opacity="1.000000" stroke="none" 
	d="
M854.160889,296.868591 
	C853.450378,301.507050 850.417969,302.356842 846.369812,302.339813 
	C844.826050,302.476959 843.628357,302.490234 842.237305,301.921204 
	C842.054626,300.899841 842.065369,300.460815 842.076050,300.021790 
	C842.323181,299.529114 842.570312,299.036407 842.900879,298.029663 
	C842.963867,297.345520 842.943298,297.175476 842.922668,297.005402 
	C843.103271,296.595825 843.283813,296.186249 843.654175,295.170898 
	C844.570374,293.945068 845.296814,293.324921 846.023315,292.704773 
	C848.072266,292.742188 850.121216,292.779572 852.834229,292.802856 
	C853.498230,292.788757 853.972839,292.646027 853.972839,292.646057 
	C854.284729,292.903259 854.596619,293.160461 854.840942,294.021332 
	C854.684875,295.075348 854.596375,295.525757 854.507812,295.976135 
	C854.398499,296.164795 854.289246,296.353455 854.160889,296.868591 
z"/>
<path fill="#ECB33B" opacity="1.000000" stroke="none" 
	d="
M846.015198,292.355164 
	C845.296814,293.324921 844.570374,293.945068 843.683777,294.835358 
	C842.257019,295.947571 840.990417,296.789612 839.428406,297.807892 
	C839.307617,296.411316 839.482239,294.838470 839.693542,292.935181 
	C836.314026,292.935181 833.110657,292.935181 829.451782,292.896637 
	C829.016724,292.060913 829.037109,291.263763 829.092651,290.069244 
	C832.840027,289.233002 836.552185,288.794128 840.619385,288.178223 
	C842.056519,287.770691 843.138672,287.540222 844.583374,287.423767 
	C845.008789,287.908661 845.071716,288.279480 845.134644,288.650330 
	C845.425476,289.768738 845.716248,290.887146 846.015198,292.355164 
z"/>
<path fill="#ECB33B" opacity="1.000000" stroke="none" 
	d="
M824.630493,288.011810 
	C824.248779,287.233398 824.236511,286.452728 824.304565,285.392334 
	C825.261719,285.075226 826.138550,285.037842 827.452637,284.995880 
	C827.937378,285.743439 827.984985,286.495575 827.995178,287.624756 
	C826.971802,288.004395 825.985901,288.006958 824.630493,288.011810 
z"/>
<path fill="#ECB33B" opacity="1.000000" stroke="none" 
	d="
M823.885620,277.987122 
	C823.136963,278.302124 822.421204,278.226959 821.352661,278.075989 
	C821.430237,277.084991 821.860535,276.169769 822.290771,275.254578 
	C822.833313,276.035370 823.375854,276.816132 823.885620,277.987122 
z"/>
<path fill="#ECB33B" opacity="1.000000" stroke="none" 
	d="
M838.273743,302.743286 
	C838.077026,302.278046 838.149719,301.558014 838.481567,300.574554 
	C838.674927,301.036896 838.609009,301.762695 838.273743,302.743286 
z"/>
<path fill="#ECB33B" opacity="1.000000" stroke="none" 
	d="
M841.842529,300.148010 
	C842.065369,300.460815 842.054626,300.899841 841.984619,301.664673 
	C841.819824,301.418427 841.714355,300.846313 841.842529,300.148010 
z"/>
<path fill="#ECB33B" opacity="1.000000" stroke="none" 
	d="
M827.710571,280.161102 
	C827.974670,280.452759 828.030640,280.895599 828.004150,281.665710 
	C827.781921,281.432739 827.642212,280.872528 827.710571,280.161102 
z"/>
<path fill="#ECB33B" opacity="1.000000" stroke="none" 
	d="
M842.767944,297.081177 
	C842.943298,297.175476 842.963867,297.345520 842.875122,297.748199 
	C842.647766,297.797974 842.508972,297.623993 842.425293,297.426575 
	C842.402527,297.372925 842.546082,297.248749 842.767944,297.081177 
z"/>
<path fill="#ECB33B" opacity="1.000000" stroke="none" 
	d="
M824.429688,280.875122 
	C824.306030,280.970917 824.156067,280.500854 824.221680,280.262970 
	C824.622192,280.206360 824.710876,280.457794 824.429688,280.875122 
z"/>
<path fill="#F8C140" opacity="1.000000" stroke="none" 
	d="
M915.894470,318.845612 
	C917.568176,317.320343 919.275391,316.229095 921.248535,314.987488 
	C927.121765,315.514252 923.787292,320.569641 925.852478,322.933411 
	C920.367920,326.544708 916.780334,325.115997 915.894470,318.845612 
z"/>
<path fill="#181208" opacity="1.000000" stroke="none" 
	d="
M845.581299,288.640625 
	C845.071716,288.279480 845.008789,287.908661 844.880737,287.262421 
	C845.346863,284.230835 845.878235,281.474609 846.454102,278.487549 
	C850.506592,278.487549 854.445679,278.487549 858.948242,278.487549 
	C858.247375,281.299652 857.775391,284.021698 856.824280,286.564545 
	C856.487122,287.465820 855.033264,288.393250 854.002441,288.504333 
	C851.370300,288.788055 848.689392,288.618896 845.581299,288.640625 
z"/>
<path fill="#ECB33B" opacity="1.000000" stroke="none" 
	d="
M854.796753,295.908600 
	C854.596375,295.525757 854.684875,295.075348 854.930725,294.316620 
	C855.087280,294.619202 855.086548,295.230133 854.796753,295.908600 
z"/>
<path fill="#ECB33B" opacity="1.000000" stroke="none" 
	d="
M853.883057,292.518921 
	C853.972839,292.646027 853.498230,292.788757 853.264221,292.707245 
	C853.219666,292.301239 853.473999,292.223267 853.883057,292.518921 
z"/>
</svg>